<svg width="32" height="32" viewBox="0 0 32 32" fill="none" xmlns="http://www.w3.org/2000/svg">
<path d="M24.3369 8.33733C24.3369 3.74012 20.5967 0 15.9995 0C11.4023 0 7.66211 3.74012 7.66211 8.33733C7.66211 12.3039 10.4467 15.6321 14.1636 16.4706V30.164C14.1636 31.1763 14.9872 31.9999 15.9995 31.9999C17.0118 31.9999 17.8354 31.1763 17.8354 30.164V29.5748H20.3067C21.0122 29.5748 21.5861 29.0304 21.5861 28.3613C21.5861 27.6921 21.0122 27.1477 20.3067 27.1477H20.2573C20.0221 27.1477 19.8308 26.9564 19.8308 26.7212V26.0423C19.8308 25.8072 20.0221 25.6158 20.2573 25.6158H20.3067C21.0122 25.6158 21.5861 25.0714 21.5861 24.4022C21.5861 23.733 21.0122 23.1886 20.3067 23.1886H17.8354V16.4706C21.5523 15.6321 24.3369 12.304 24.3369 8.33733ZM15.9995 13.0302C13.4078 13.0302 11.3067 10.9291 11.3067 8.33733C11.3067 5.74558 13.4078 3.64451 15.9995 3.64451C18.5913 3.64451 20.6923 5.74558 20.6923 8.33733C20.6923 10.9291 18.5913 13.0302 15.9995 13.0302Z" fill="#D91C23"/>
</svg>
