<svg width="28" height="28" viewBox="0 0 28 28" fill="none" xmlns="http://www.w3.org/2000/svg">
<path d="M14 0C6.2804 0 0 6.2804 0 14C0 21.7196 6.2804 28 14 28C21.7196 28 28 21.7196 28 14C28 6.2804 21.7196 0 14 0ZM14 25.4545C7.68388 25.4545 2.54545 20.316 2.54545 14C2.54545 7.68396 7.68388 2.54545 14 2.54545C20.3161 2.54545 25.4545 7.68396 25.4545 14C25.4545 20.316 20.316 25.4545 14 25.4545Z" fill="#D91C23"/>
<path d="M19.2503 9.05023L12.0506 16.2499L8.7508 12.95C8.25384 12.4531 7.44795 12.453 6.95091 12.95C6.45386 13.447 6.45386 14.2528 6.95091 14.7498L11.1506 18.9497C11.3892 19.1884 11.7129 19.3225 12.0505 19.3225H12.0506C12.3881 19.3225 12.7118 19.1884 12.9505 18.9498L21.0502 10.8502C21.5472 10.3532 21.5472 9.54736 21.0502 9.05031C20.5531 8.55327 19.7473 8.55319 19.2503 9.05023Z" fill="#D91C23"/>
</svg>
