<svg width="30" height="30" viewBox="0 0 30 30" fill="none" xmlns="http://www.w3.org/2000/svg">
<path d="M3.77468 27.9738H6.98584C8.18584 27.9738 9.18737 27.1592 9.49776 26.0585C10.0897 26.13 10.6747 26.2477 11.2355 26.4635C12.4331 26.8615 13.8697 27.7304 16.2397 27.7731L23.6255 27.9138H23.6912C24.4569 27.9098 25.1968 27.6369 25.7816 27.1428C26.3665 26.6486 26.7591 25.9646 26.8908 25.2104L28.8016 13.8888C28.8815 13.418 28.8561 12.9353 28.7272 12.4754C28.5983 12.0156 28.3692 11.59 28.0562 11.2292C27.7424 10.871 27.3545 10.5852 26.9194 10.3916C26.4844 10.1979 26.0124 10.1011 25.5362 10.1077L19.6031 10.2369C20.1374 8.77384 20.5089 7.14461 20.5493 6.08769C20.5709 5.56339 20.4855 5.04018 20.2982 4.54998C20.1109 4.05978 19.8258 3.61288 19.4601 3.23654C19.0868 2.85178 18.6398 2.54627 18.1457 2.3383C17.6517 2.13032 17.1207 2.02416 16.5847 2.02615C16.0876 2.02575 15.6063 2.20072 15.2256 2.52027C14.8448 2.83982 14.589 3.28346 14.5031 3.77307C14.1755 5.60307 12.6155 8.84884 10.8524 10.6338C10.4705 11.0723 9.97891 11.4012 9.42968 11.5927C9.24262 11.0953 8.90867 10.6665 8.47217 10.3633C8.03567 10.0602 7.51728 9.89696 6.98584 9.89538H3.77353C3.07904 9.8966 2.41336 10.1731 1.92239 10.6643C1.43142 11.1555 1.15521 11.8213 1.1543 12.5158V25.3523C1.15491 26.0472 1.43114 26.7135 1.92239 27.2049C2.41365 27.6964 3.07979 27.9729 3.77468 27.9738ZM12.5428 12.2031C14.3855 10.3431 16.2431 6.85384 16.7451 4.33846C17.1455 4.36961 17.5158 4.54384 17.7985 4.83692C18.102 5.15307 18.2601 5.565 18.2439 5.99884C18.2128 6.81 17.8805 8.22807 17.4362 9.44538C17.307 9.79717 17.2653 10.1751 17.3148 10.5466C17.3642 10.9181 17.5033 11.272 17.7201 11.5777C18.1562 12.1892 18.8531 12.5192 19.6205 12.5342L25.5835 12.4154L25.6043 12.4142C25.9735 12.4142 26.2043 12.6162 26.3105 12.7373C26.4016 12.8411 26.4683 12.964 26.5054 13.097C26.5426 13.2301 26.5493 13.3698 26.5251 13.5058L24.6143 24.8262C24.5766 25.044 24.4635 25.2417 24.2947 25.3845C24.126 25.5273 23.9123 25.6062 23.6912 25.6073H23.6716L16.2824 25.4654C14.4155 25.4331 13.3331 24.7396 12.0662 24.3115C11.2762 24.0059 10.4489 23.8073 9.60622 23.7208V13.9754L10.1485 13.7908C11.0715 13.4797 11.897 12.9323 12.5428 12.2031ZM3.46199 12.5158C3.46199 12.3427 3.60276 12.2031 3.77468 12.2031H6.98584C7.15776 12.2031 7.29853 12.3438 7.29853 12.5158V25.3523C7.29853 25.5254 7.15776 25.6662 6.98584 25.6662H3.77353C3.69069 25.6655 3.61145 25.6322 3.5531 25.5734C3.49474 25.5146 3.46199 25.4351 3.46199 25.3523V12.5158Z" fill="#D91C23"/>
</svg>
