<svg width="28" height="28" viewBox="0 0 28 28" fill="none" xmlns="http://www.w3.org/2000/svg">
<path d="M23.45 5.9H19.4V4.55C19.4 2.255 17.645 0.5 15.35 0.5H12.65C10.355 0.5 8.6 2.255 8.6 4.55V5.9H4.55C2.255 5.9 0.5 7.655 0.5 9.95V23.45C0.5 25.745 2.255 27.5 4.55 27.5H23.45C25.745 27.5 27.5 25.745 27.5 23.45V9.95C27.5 7.655 25.745 5.9 23.45 5.9ZM11.3 4.55C11.3 3.74 11.84 3.2 12.65 3.2H15.35C16.16 3.2 16.7 3.74 16.7 4.55V5.9H11.3V4.55ZM4.55 8.6H23.45C24.26 8.6 24.8 9.14 24.8 9.95V14H15.35C15.35 13.19 14.81 12.65 14 12.65C13.19 12.65 12.65 13.19 12.65 14H3.2V9.95C3.2 9.14 3.74 8.6 4.55 8.6ZM12.65 16.7C12.65 17.51 13.19 18.05 14 18.05C14.81 18.05 15.35 17.51 15.35 16.7H19.4V24.8H8.6V16.7H12.65ZM3.2 23.45V16.7H5.9V24.8H4.55C3.74 24.8 3.2 24.26 3.2 23.45ZM23.45 24.8H22.1V16.7H24.8V23.45C24.8 24.26 24.26 24.8 23.45 24.8Z" fill="#D91C23"/>
</svg>
