<svg width="22" height="16" viewBox="0 0 22 16" fill="none" xmlns="http://www.w3.org/2000/svg">
<path d="M20.6249 16H1.37501C0.615584 16 0 15.403 0 14.6667C0 13.9303 0.615584 13.3333 1.37501 13.3333H20.625C21.3844 13.3333 22 13.9303 22 14.6667C22 15.403 21.3844 16 20.6249 16ZM20.6249 9.33333H1.37501C0.615584 9.33333 0 8.7364 0 8.00004C0 7.26368 0.615584 6.6667 1.37501 6.6667H20.625C21.3844 6.6667 22 7.26363 22 8.00004C22 8.73645 21.3844 9.33333 20.6249 9.33333ZM20.6249 2.66669H1.37501C0.615584 2.66669 0 2.06976 0 1.33336C0 0.596949 0.615584 1.90735e-05 1.37501 1.90735e-05H20.625C21.3844 1.90735e-05 22 0.596949 22 1.33336C22 2.06976 21.3844 2.66669 20.6249 2.66669Z" fill="white"/>
</svg>
