<svg width="12" height="12" viewBox="0 0 12 12" fill="none" xmlns="http://www.w3.org/2000/svg">
<path d="M11.6568 10.5254L7.13141 6.00001L11.6569 1.4745C11.9691 1.16232 11.9691 0.655378 11.6568 0.343094C11.3446 0.0309153 10.8377 0.0309153 10.5255 0.343094L6 4.86861L1.47448 0.343094C1.16231 0.0309153 0.655364 0.0309153 0.343185 0.343094C0.0309011 0.655378 0.0309011 1.16232 0.34308 1.4745L4.86859 6.00001L0.343185 10.5254C0.0309008 10.8377 0.0309008 11.3447 0.343079 11.6568C0.655364 11.9691 1.16231 11.9691 1.47459 11.6568L6 7.13142L10.5254 11.6568C10.8377 11.9691 11.3446 11.9691 11.6569 11.6568C11.9691 11.3447 11.9691 10.8377 11.6568 10.5254Z" fill="white"/>
</svg>
