<svg width="14" height="15" viewBox="0 0 14 15" fill="none" xmlns="http://www.w3.org/2000/svg">
<g clip-path="url(#clip0_4_109)">
<path d="M7 14.5C10.866 14.5 14 11.366 14 7.5C14 3.63401 10.866 0.5 7 0.5C3.13401 0.5 0 3.63401 0 7.5C0 11.366 3.13401 14.5 7 14.5Z" fill="#00BA00"/>
<path fill-rule="evenodd" clip-rule="evenodd" d="M4.81181 10.9174L2.25984 8.167C2.09055 7.9856 2.00011 7.74445 2.00838 7.49646C2.01665 7.24847 2.12294 7.01388 2.30394 6.84416C2.48605 6.67556 2.72761 6.58609 2.97561 6.59539C3.22362 6.6047 3.4578 6.712 3.62677 6.89377L5.6 9.00479L8.7252 6.08353C8.75312 6.05788 8.78257 6.03396 8.81339 6.01188L10.2795 4.63944C10.4609 4.47014 10.7021 4.37971 10.9501 4.38797C11.1981 4.39624 11.4326 4.50253 11.6024 4.68353C11.7717 4.86493 11.8621 5.10608 11.8538 5.35407C11.8456 5.60206 11.7393 5.83664 11.5583 6.00637L7.06614 10.1953L5.5063 11.6449L4.81732 10.9064L4.81181 10.9174Z" fill="white"/>
</g>
<defs>
<clipPath id="clip0_4_109">
<rect width="14" height="14" fill="white" transform="translate(0 0.5)"/>
</clipPath>
</defs>
</svg>
