<svg width="32" height="32" viewBox="0 0 32 32" fill="none" xmlns="http://www.w3.org/2000/svg">
<path d="M17.9493 28H14.9493C14.2865 27.9992 13.6511 27.7356 13.1824 27.2669C12.7138 26.7982 12.4501 26.1628 12.4493 25.5V24.083C12.0693 23.872 11.6853 23.645 11.3233 23.395L10.1253 24.109C8.95134 24.792 7.41934 24.392 6.71934 23.209L5.33334 20.81C5.00241 20.2344 4.91353 19.551 5.08623 18.9099C5.25892 18.2688 5.67906 17.7225 6.25434 17.391L7.44734 16.708C7.45734 16.473 7.44934 16.237 7.44934 16C7.44934 15.763 7.45734 15.527 7.47634 15.297L7.94434 14.423L7.44634 15.29L6.25634 14.606C5.97041 14.4431 5.71979 14.2248 5.51909 13.9641C5.31838 13.7033 5.17161 13.4051 5.08734 13.087C5.00089 12.7696 4.97848 12.4381 5.0214 12.1119C5.06432 11.7857 5.17172 11.4713 5.33734 11.187L6.71434 8.804C7.04643 8.23208 7.59129 7.81476 8.22998 7.64314C8.86867 7.47153 9.54932 7.55955 10.1233 7.888L11.3373 8.585C11.6783 8.353 12.0643 8.125 12.4603 7.929L12.4493 6.5C12.4493 5.121 13.5713 4 14.9493 4H17.9493C19.3283 4 20.4493 5.121 20.4493 6.5V7.91C20.8353 8.126 21.2203 8.353 21.5853 8.604L22.7743 7.887C23.3484 7.55882 24.029 7.47094 24.6676 7.64254C25.3062 7.81413 25.8511 8.23128 26.1833 8.803L27.5613 11.186C27.8973 11.766 27.9853 12.442 27.8113 13.088C27.6373 13.734 27.2223 14.273 26.6423 14.606L25.4523 15.29C25.4403 15.53 25.4493 15.765 25.4493 16C25.4493 16.235 25.4403 16.47 25.4233 16.698L26.6433 17.393C27.2233 17.726 27.6383 18.265 27.8123 18.911C27.9863 19.557 27.8983 20.233 27.5633 20.812L26.1843 23.196C25.8528 23.7683 25.3081 24.1859 24.6694 24.3576C24.0308 24.5292 23.3501 24.4409 22.7763 24.112L21.5613 23.415C21.2213 23.646 20.8353 23.874 20.4393 24.07L20.4493 25.5C20.4493 26.879 19.3283 28 17.9493 28ZM11.3563 21.41C11.7473 21.41 12.1333 21.524 12.4603 21.75C12.7463 21.947 13.0483 22.126 13.3573 22.28C14.0203 22.611 14.4493 23.318 14.4493 24.083V25.5C14.4493 25.6326 14.502 25.7598 14.5958 25.8536C14.6896 25.9473 14.8167 26 14.9493 26H17.9493C18.2243 26 18.4493 25.775 18.4493 25.5V24.09C18.4493 23.322 18.8813 22.611 19.5493 22.279C19.8623 22.125 20.1643 21.946 20.4503 21.749C20.7598 21.5399 21.1221 21.4228 21.4953 21.4111C21.8685 21.3994 22.2375 21.4937 22.5593 21.683L23.7703 22.378C23.8855 22.4434 24.0218 22.4608 24.1496 22.4263C24.2775 22.3919 24.3866 22.3084 24.4533 22.194L25.8313 19.811C25.8645 19.7541 25.8861 19.6912 25.8949 19.6259C25.9036 19.5606 25.8993 19.4942 25.8821 19.4306C25.865 19.367 25.8355 19.3074 25.7952 19.2553C25.7549 19.2032 25.7046 19.1596 25.6473 19.127L24.4573 18.443C23.7723 18.049 23.3693 17.303 23.4303 16.542C23.4578 16.1798 23.4571 15.8161 23.4283 15.454C23.3673 14.695 23.7713 13.949 24.4553 13.556L25.6453 12.872C25.7025 12.8394 25.7525 12.7957 25.7925 12.7435C25.8325 12.6913 25.8617 12.6316 25.8783 12.568C25.8959 12.5044 25.9006 12.4379 25.892 12.3724C25.8834 12.307 25.8618 12.2439 25.8283 12.187L24.4513 9.805C24.3846 9.69033 24.2753 9.60665 24.1472 9.57219C24.0191 9.53773 23.8826 9.55527 23.7673 9.621L22.5543 10.318C22.2321 10.5061 21.8633 10.5994 21.4904 10.5872C21.1175 10.575 20.7556 10.4578 20.4463 10.249C20.16 10.0514 19.8599 9.87461 19.5483 9.72C18.8813 9.389 18.4493 8.678 18.4493 7.91V6.5C18.4493 6.225 18.2243 6 17.9493 6H14.9493C14.8167 6 14.6896 6.05268 14.5958 6.14645C14.502 6.24021 14.4493 6.36739 14.4493 6.5V7.91C14.4493 8.679 14.0173 9.389 13.3493 9.721C13.037 9.87586 12.7362 10.053 12.4493 10.251C12.1394 10.4592 11.7771 10.5759 11.404 10.5877C11.0308 10.5996 10.6618 10.5061 10.3393 10.318L9.12834 9.622C9.01359 9.55602 8.87736 9.53823 8.74951 9.57253C8.62167 9.60683 8.51264 9.69043 8.44634 9.805L7.06834 12.188C7.03508 12.2448 7.01343 12.3077 7.00464 12.373C6.99584 12.4382 7.00008 12.5046 7.0171 12.5682C7.03412 12.6318 7.06358 12.6914 7.10379 12.7436C7.144 12.7957 7.19415 12.8394 7.25134 12.872L8.44234 13.556C9.12634 13.95 9.52934 14.696 9.47034 15.456C9.45534 15.637 9.44934 15.817 9.44934 16C9.44934 16.183 9.45534 16.363 9.47034 16.541C9.49595 16.9231 9.4128 17.3046 9.23051 17.6414C9.04822 17.9782 8.77425 18.2565 8.44034 18.444L7.24634 19.128C7.13187 19.1957 7.04888 19.306 7.01552 19.4348C6.98217 19.5635 7.00116 19.7002 7.06834 19.815L8.44534 22.2C8.51223 22.3134 8.62142 22.3957 8.74892 22.4287C8.87642 22.4617 9.0118 22.4427 9.12534 22.376L10.3543 21.676C10.6595 21.5016 11.0049 21.4099 11.3563 21.41Z" fill="#D91C23"/>
<path d="M16.4493 20.9995C13.6923 20.9995 11.4493 18.7565 11.4493 15.9995C11.4493 13.2425 13.6923 10.9995 16.4493 10.9995C19.2063 10.9995 21.4493 13.2425 21.4493 15.9995C21.4493 18.7565 19.2063 20.9995 16.4493 20.9995ZM16.4493 12.9995C14.7953 12.9995 13.4493 14.3455 13.4493 15.9995C13.4493 17.6535 14.7953 18.9995 16.4493 18.9995C18.1033 18.9995 19.4493 17.6535 19.4493 15.9995C19.4493 14.3455 18.1033 12.9995 16.4493 12.9995Z" fill="#D91C23"/>
</svg>
