<svg width="24" height="15" viewBox="0 0 24 15" fill="none" xmlns="http://www.w3.org/2000/svg">
<path d="M19.0177 1.64756L13.96 12.5727C13.5045 13.6855 12.7206 14.3429 11.8606 14.3429C11.1527 14.3429 10.5457 13.9889 10.217 13.4074C9.86279 12.7245 9.88831 11.8898 10.318 11.1817L16.9441 0.560486C17.273 0.0294527 17.9559 -0.147643 18.5122 0.130505C19.0685 0.408654 19.2708 1.06626 19.0179 1.64782L19.0177 1.64756ZM20.7879 4.80876C20.4087 4.37903 19.7511 4.35376 19.2958 4.75823C18.8659 5.13768 18.8406 5.79503 19.2453 6.25028C20.965 8.12178 21.9257 10.5748 21.9257 13.1797C21.9257 13.7613 22.4065 14.2165 22.9628 14.2165C23.5446 14.2165 23.9996 13.736 23.9996 13.1797C24.0249 10.0438 22.887 7.05971 20.7879 4.80876ZM12.8471 3.06382C13.4287 3.11435 13.9092 2.70988 13.9597 2.12807C14.0103 1.54626 13.6058 1.066 13.024 1.01548C12.6953 0.990214 12.3414 0.964951 12.0124 0.964951C5.38665 0.964951 1.52588e-05 6.45263 1.52588e-05 13.1797C1.52588e-05 13.7613 0.480522 14.2165 1.03682 14.2165C1.59312 14.2165 2.07362 13.736 2.07362 13.1797C2.07362 7.59074 6.52476 3.03856 11.9872 3.03856C12.2906 3.0133 12.5943 3.03856 12.8471 3.06382Z" fill="#D91C23"/>
</svg>
