<svg width="32" height="32" viewBox="0 0 32 32" fill="none" xmlns="http://www.w3.org/2000/svg">
<path d="M21.3733 6.76007C19.42 4.80673 16.8267 3.7334 14.0667 3.7334C11.3067 3.7334 8.71334 4.80673 6.76 6.76007C4.80667 8.7134 3.73334 11.3067 3.73334 14.0667C3.73334 16.8267 4.80667 19.4201 6.76 21.3734C8.71334 23.3267 11.3067 24.4001 14.0667 24.4001C16.0333 24.4001 17.9067 23.8467 19.5267 22.8267L24.6733 27.9667C24.8667 28.1601 25.1267 28.2601 25.38 28.2601C25.6333 28.2601 25.8933 28.1601 26.0867 27.9667L27.9733 26.0801C28.3667 25.6867 28.3667 25.0534 27.9733 24.6667L22.8333 19.5201C23.8533 17.8934 24.4067 16.0201 24.4067 14.0601C24.4 11.3067 23.3267 8.7134 21.3733 6.76007ZM14.0667 22.4001C11.84 22.4001 9.74667 21.5334 8.17334 19.9601C6.6 18.3867 5.73334 16.2934 5.73334 14.0667C5.73334 11.8401 6.6 9.74673 8.17334 8.1734C9.74667 6.60007 11.84 5.7334 14.0667 5.7334C16.2933 5.7334 18.3867 6.60007 19.96 8.1734C21.5333 9.74673 22.4 11.8401 22.4 14.0667C22.4 16.2934 21.5333 18.3867 19.96 19.9601C18.3867 21.5334 16.2933 22.4001 14.0667 22.4001ZM25.8533 25.3801L25.38 25.8534L21.1267 21.6001C21.2067 21.5267 21.2933 21.4534 21.3733 21.3734C21.4533 21.2934 21.52 21.2067 21.6 21.1267L25.8533 25.3801Z" fill="#D91C23"/>
<path d="M20.0667 13.0668H19.2667L18.2333 11.5134C18.0267 11.2001 17.66 11.0334 17.2867 11.0734C16.9133 11.1134 16.5933 11.3668 16.4667 11.7134L15.42 14.5134L13.68 9.72677C13.5333 9.32677 13.1467 9.06011 12.7267 9.06677C12.3 9.07344 11.9267 9.34677 11.7933 9.75344L10.44 13.8134L10.24 13.5134C10.0533 13.2334 9.74 13.0668 9.40667 13.0668H8.07333C7.52 13.0668 7.07333 13.5134 7.07333 14.0668C7.07333 14.6201 7.52 15.0668 8.07333 15.0668H8.87333L9.90667 16.6201C10.12 16.9401 10.4867 17.1068 10.8733 17.0534C11.0582 17.0283 11.2324 16.9519 11.3761 16.8329C11.5198 16.7139 11.6274 16.557 11.6867 16.3801L12.78 13.1001L14.4667 17.7334C14.6067 18.1268 14.98 18.3868 15.4 18.3934H15.4067C15.8267 18.3934 16.1933 18.1334 16.34 17.7468L17.6533 14.2401L17.9067 14.6134C18.0933 14.8934 18.4067 15.0601 18.74 15.0601H20.0733C20.6267 15.0601 21.0733 14.6134 21.0733 14.0601C21.0733 13.5068 20.62 13.0668 20.0667 13.0668Z" fill="#D91C23"/>
</svg>
