<svg width="20" height="26" viewBox="0 0 20 26" fill="none" xmlns="http://www.w3.org/2000/svg">
<path d="M1.06781 16.7517H8.02504L6.62607 24.4298C6.58325 24.6654 6.62082 24.9085 6.73275 25.1202C6.84468 25.3319 7.02449 25.4998 7.2433 25.5971C7.46211 25.6943 7.70725 25.7152 7.93937 25.6564C8.17148 25.5976 8.37712 25.4625 8.52327 25.2729L19.7782 10.6572C19.8999 10.4991 19.9749 10.3102 19.9947 10.1117C20.0145 9.91315 19.9784 9.71307 19.8903 9.53407C19.8022 9.35506 19.6658 9.20429 19.4965 9.09883C19.3272 8.99337 19.1317 8.93744 18.9322 8.93736H11.975L13.3739 1.25928C13.4167 1.02369 13.3792 0.780553 13.2672 0.56888C13.1553 0.357207 12.9755 0.189278 12.7567 0.0920433C12.5379 -0.00519089 12.2927 -0.0260907 12.0606 0.0326982C11.8285 0.0914871 11.6229 0.226556 11.4767 0.416225L0.221766 15.0319C0.100078 15.1899 0.0250842 15.3789 0.00527846 15.5774C-0.0145273 15.7759 0.0216461 15.976 0.109702 16.155C0.197757 16.334 0.334177 16.4848 0.50351 16.5903C0.672843 16.6957 0.868323 16.7517 1.06781 16.7517ZM10.4828 5.20835L9.64321 9.81417C9.61516 9.96815 9.62129 10.1264 9.66117 10.2778C9.70104 10.4291 9.77369 10.5698 9.87397 10.69C9.97425 10.8102 10.0997 10.9068 10.2415 10.9732C10.3832 11.0395 10.5378 11.0739 10.6944 11.0738H16.7611L9.51716 20.4807L10.3568 15.8749C10.3848 15.7209 10.3787 15.5627 10.3388 15.4113C10.299 15.26 10.2263 15.1193 10.126 14.9991C10.0258 14.8789 9.9003 14.7822 9.75853 14.7159C9.61677 14.6496 9.46216 14.6152 9.30564 14.6153H3.2389L10.4828 5.20835Z" fill="#D91C23"/>
</svg>
