<svg width="24" height="24" viewBox="0 0 24 24" fill="none" xmlns="http://www.w3.org/2000/svg">
<g clip-path="url(#clip0_195_2396)">
<path d="M19.1061 2.93146C17.7024 1.52458 15.9127 0.566102 13.9637 0.177504C12.0147 -0.211094 9.9942 -0.0123158 8.15831 0.748646C6.32241 1.50961 4.75376 2.79849 3.65118 4.45194C2.54859 6.10538 1.96172 8.04895 1.96493 10.0363C1.95952 11.3556 2.21582 12.6628 2.71901 13.8824C3.22219 15.1019 3.96227 16.2096 4.8964 17.1412L11.5812 23.826C11.6364 23.8812 11.7018 23.9249 11.7739 23.9548C11.846 23.9846 11.9232 24 12.0012 24C12.0793 24 12.1565 23.9846 12.2286 23.9548C12.3006 23.9249 12.3661 23.8812 12.4213 23.826L19.1061 17.1412C20.9836 15.2533 22.0376 12.6989 22.0376 10.0363C22.0376 7.37373 20.9836 4.81938 19.1061 2.93146ZM12.0012 16.4018C8.45702 16.4018 5.5736 13.5184 5.5736 9.97415C5.5736 6.42993 8.45702 3.54646 12.0012 3.54646C15.5455 3.54646 18.4289 6.42988 18.4289 9.97415C18.4289 13.5184 15.5455 16.4018 12.0012 16.4018Z" fill="#D91C23"/>
</g>
<defs>
<clipPath id="clip0_195_2396">
<rect width="24" height="24" fill="white"/>
</clipPath>
</defs>
</svg>
