<svg width="158" height="158" viewBox="0 0 158 158" fill="none" xmlns="http://www.w3.org/2000/svg">
<g clip-path="url(#clip0_71_1515)">
<path d="M153.223 40.0709C149.075 24.8048 133.198 8.92453 117.929 4.77703C108.566 2.44406 96.0251 0.0401172 79 0C61.9749 0.0401172 49.4336 2.44406 40.0709 4.77703C24.8048 8.92453 8.92453 24.8017 4.77703 40.0709C2.44406 49.4336 0.0401172 61.9749 0 79C0.0401172 96.0251 2.44406 108.566 4.77703 117.929C8.92453 133.198 24.8048 149.075 40.0709 153.223C49.4336 155.556 61.9811 157.96 79 158C96.022 157.96 108.566 155.556 117.929 153.223C133.198 149.075 149.075 133.198 153.223 117.929C155.556 108.566 157.96 96.0189 158 79C157.96 61.9749 155.556 49.4336 153.223 40.0709Z" fill="#E5F4D9" fill-opacity="0.05"/>
<path d="M79 26.5391C68.6242 26.5391 58.4814 29.6158 49.8543 35.3803C41.2271 41.1448 34.5031 49.3381 30.5324 58.9241C26.5618 68.5101 25.5229 79.0582 27.5471 89.2346C29.5713 99.411 34.5677 108.759 41.9045 116.095C49.2413 123.432 58.589 128.429 68.7654 130.453C78.9418 132.477 89.49 131.438 99.076 127.468C108.662 123.497 116.855 116.773 122.62 108.146C128.384 99.5186 131.461 89.3758 131.461 79C131.461 65.0865 125.934 51.7428 116.096 41.9045C106.257 32.0662 92.9135 26.5391 79 26.5391Z" fill="url(#paint0_linear_71_1515)"/>
<path d="M108.934 70.3131L77.3863 103.431C76.5272 104.333 75.4948 105.053 74.351 105.547C73.2073 106.04 71.9756 106.298 70.7299 106.304H70.6898C69.4513 106.304 68.2254 106.056 67.0847 105.573C65.944 105.091 64.9117 104.385 64.0489 103.496L47.3138 86.2551C46.4037 85.3977 45.6767 84.3648 45.1767 83.2187C44.6767 82.0727 44.4141 80.8372 44.4046 79.5869C44.3951 78.3365 44.639 77.0972 45.1215 75.9437C45.6041 74.7902 46.3153 73.7464 47.2123 72.8753C48.1093 72.0042 49.1734 71.3238 50.3406 70.8752C51.5077 70.4266 52.7536 70.2191 54.0031 70.2651C55.2527 70.3112 56.4799 70.6099 57.6108 71.1432C58.7418 71.6765 59.7529 72.4334 60.5834 73.3682L70.6127 83.703L95.5131 57.5528C96.3509 56.6715 97.3542 55.964 98.4655 55.4705C99.5768 54.977 100.774 54.7072 101.99 54.6765C103.206 54.6459 104.415 54.8549 105.55 55.2918C106.685 55.7286 107.722 56.3847 108.604 57.2226C109.485 58.0604 110.192 59.0636 110.686 60.175C111.179 61.2863 111.449 62.4839 111.48 63.6995C111.511 64.915 111.301 66.1247 110.865 67.2595C110.428 68.3943 109.772 69.4319 108.934 70.3131Z" fill="url(#paint1_linear_71_1515)"/>
</g>
<defs>
<linearGradient id="paint0_linear_71_1515" x1="116.102" y1="116.102" x2="41.8978" y2="41.8978" gradientUnits="userSpaceOnUse">
<stop stop-color="#13B601"/>
<stop offset="0.52" stop-color="#13B601"/>
<stop offset="1" stop-color="#CBF4B4"/>
</linearGradient>
<linearGradient id="paint1_linear_71_1515" x1="93.393" y1="87.4308" x2="63.3237" y2="57.3584" gradientUnits="userSpaceOnUse">
<stop stop-color="#CBF4B4"/>
<stop offset="0.57" stop-color="white"/>
<stop offset="1" stop-color="white"/>
</linearGradient>
<clipPath id="clip0_71_1515">
<rect width="158" height="158" fill="white"/>
</clipPath>
</defs>
</svg>
