<svg width="38" height="38" viewBox="0 0 38 38" fill="none" xmlns="http://www.w3.org/2000/svg">
<path fill-rule="evenodd" clip-rule="evenodd" d="M9.73802 0H22.4427L33.2103 11.2234V33.053C33.2103 35.7876 30.9979 38 28.2727 38H9.73802C7.0034 38 4.79102 35.7876 4.79102 33.053V4.94701C4.79097 2.21239 7.00335 0 9.73802 0Z" fill="#E5252A"/>
<path fill-rule="evenodd" clip-rule="evenodd" d="M22.4336 0V11.1379H33.2107L22.4336 0Z" fill="black"/>
<path d="M10.2891 28.3528V21.4118H13.2421C13.9732 21.4118 14.5525 21.6112 14.9892 22.0195C15.426 22.4183 15.6444 22.9595 15.6444 23.6337C15.6444 24.3078 15.426 24.8491 14.9892 25.2479C14.5525 25.6562 13.9732 25.8556 13.2421 25.8556H12.0647V28.3528H10.2891ZM12.0647 24.3459H13.0427C13.3085 24.3459 13.5174 24.2889 13.6599 24.156C13.8023 24.0325 13.8783 23.8616 13.8783 23.6337C13.8783 23.4059 13.8024 23.2349 13.6599 23.1115C13.5175 22.9786 13.3086 22.9216 13.0427 22.9216H12.0647V24.3459ZM16.3755 28.3528V21.4118H18.8348C19.319 21.4118 19.7748 21.4783 20.2021 21.6207C20.6294 21.7631 21.0187 21.9626 21.3605 22.2379C21.7024 22.5038 21.9777 22.8646 22.1771 23.3204C22.367 23.7762 22.4715 24.2984 22.4715 24.8871C22.4715 25.4663 22.367 25.9885 22.1771 26.4443C21.9777 26.9001 21.7024 27.2609 21.3605 27.5267C21.0186 27.8021 20.6294 28.0015 20.2021 28.1439C19.7748 28.2863 19.319 28.3528 18.8348 28.3528H16.3755ZM18.1131 26.8431H18.6259C18.9012 26.8431 19.1576 26.8146 19.395 26.7482C19.6229 26.6817 19.8413 26.5772 20.0502 26.4348C20.2496 26.2924 20.411 26.093 20.5249 25.8271C20.6389 25.5613 20.6959 25.2479 20.6959 24.8871C20.6959 24.5167 20.6389 24.2034 20.5249 23.9376C20.411 23.6717 20.2496 23.4723 20.0502 23.3299C19.8413 23.1875 19.6229 23.083 19.395 23.0165C19.1576 22.9501 18.9012 22.9216 18.6259 22.9216H18.1131V26.8431ZM23.364 28.3528V21.4118H28.3016V22.9216H25.1396V24.0325H27.6654V25.5328H25.1396V28.3528H23.364Z" fill="white"/>
</svg>
