<svg width="20" height="14" viewBox="0 0 20 14" fill="none" xmlns="http://www.w3.org/2000/svg">
<path d="M4.125 9.02479C3.7125 10.0623 3.0625 11.0873 2.19375 12.0748C1.91875 12.3873 1.88125 12.8373 2.10625 13.1873C2.28125 13.4623 2.56875 13.6123 2.88125 13.6123C2.96875 13.6123 3.05625 13.606 3.14375 13.5748C4.98125 13.0373 9.275 11.131 9.39375 5.01853C9.4375 2.66228 7.7125 0.637285 5.46875 0.406035C4.225 0.281035 2.9875 0.687285 2.06875 1.51228C1.61435 1.92438 1.25117 2.42695 1.00253 2.98774C0.753893 3.54852 0.625296 4.1551 0.625 4.76854C0.625 6.83104 2.0875 8.63728 4.125 9.02479ZM15.4437 0.406035C14.2062 0.281035 12.9688 0.687285 12.05 1.51228C11.5956 1.92435 11.2324 2.42692 10.9837 2.98771C10.7351 3.5485 10.6065 4.1551 10.6062 4.76854C10.6062 6.83104 12.0687 8.63728 14.1062 9.02479C13.6937 10.0623 13.0437 11.0873 12.175 12.0748C11.9 12.3873 11.8625 12.8373 12.0875 13.1873C12.2625 13.4623 12.55 13.6123 12.8625 13.6123C12.95 13.6123 13.0375 13.606 13.125 13.5748C14.9625 13.0373 19.2563 11.131 19.375 5.01853V4.93103C19.375 2.61228 17.6687 0.637285 15.4437 0.406035Z" fill="white"/>
</svg>
