<svg width="15" height="14" viewBox="0 0 15 14" fill="none" xmlns="http://www.w3.org/2000/svg">
<path d="M10.8337 2.33334C10.8337 1.93778 10.951 1.5511 11.1707 1.2222C11.3905 0.893306 11.7028 0.636961 12.0683 0.485585C12.4337 0.33421 12.8359 0.294603 13.2238 0.371774C13.6118 0.448944 13.9682 0.639426 14.2479 0.919131C14.5276 1.19884 14.7181 1.5552 14.7952 1.94316C14.8724 2.33113 14.8328 2.73326 14.6814 3.09871C14.53 3.46416 14.2737 3.77652 13.9448 3.99628C13.6159 4.21605 13.2292 4.33334 12.8337 4.33334C12.3032 4.33334 11.7945 4.12263 11.4194 3.74756C11.0444 3.37249 10.8337 2.86378 10.8337 2.33334ZM0.833659 3.00001H8.83366C9.01047 3.00001 9.18004 2.92977 9.30506 2.80475C9.43009 2.67972 9.50033 2.51016 9.50033 2.33334C9.50033 2.15653 9.43009 1.98696 9.30506 1.86194C9.18004 1.73692 9.01047 1.66668 8.83366 1.66668H0.833659C0.656848 1.66668 0.487279 1.73692 0.362254 1.86194C0.23723 1.98696 0.166992 2.15653 0.166992 2.33334C0.166992 2.51016 0.23723 2.67972 0.362254 2.80475C0.487279 2.92977 0.656848 3.00001 0.833659 3.00001ZM4.83366 5.00001C4.42103 5.00117 4.01886 5.12993 3.68228 5.36864C3.34571 5.60734 3.0912 5.94431 2.95366 6.33334H0.833659C0.656848 6.33334 0.487279 6.40358 0.362254 6.52861C0.23723 6.65363 0.166992 6.8232 0.166992 7.00001C0.166992 7.17682 0.23723 7.34639 0.362254 7.47142C0.487279 7.59644 0.656848 7.66668 0.833659 7.66668H2.95366C3.07596 8.0126 3.29106 8.31821 3.57542 8.55006C3.85978 8.78192 4.20244 8.93108 4.5659 8.98123C4.92936 9.03138 5.29961 8.98059 5.63613 8.8344C5.97265 8.68822 6.26248 8.45228 6.47389 8.15241C6.6853 7.85253 6.81015 7.50029 6.83477 7.13421C6.85939 6.76814 6.78283 6.40234 6.61348 6.07686C6.44413 5.75138 6.18851 5.47876 5.87459 5.28883C5.56067 5.0989 5.20056 4.99898 4.83366 5.00001ZM14.167 6.33334H8.83366C8.65685 6.33334 8.48728 6.40358 8.36226 6.52861C8.23723 6.65363 8.16699 6.8232 8.16699 7.00001C8.16699 7.17682 8.23723 7.34639 8.36226 7.47142C8.48728 7.59644 8.65685 7.66668 8.83366 7.66668H14.167C14.3438 7.66668 14.5134 7.59644 14.6384 7.47142C14.7634 7.34639 14.8337 7.17682 14.8337 7.00001C14.8337 6.8232 14.7634 6.65363 14.6384 6.52861C14.5134 6.40358 14.3438 6.33334 14.167 6.33334ZM6.16699 11H0.833659C0.656848 11 0.487279 11.0702 0.362254 11.1953C0.23723 11.3203 0.166992 11.4899 0.166992 11.6667C0.166992 11.8435 0.23723 12.0131 0.362254 12.1381C0.487279 12.2631 0.656848 12.3333 0.833659 12.3333H6.16699C6.3438 12.3333 6.51337 12.2631 6.6384 12.1381C6.76342 12.0131 6.83366 11.8435 6.83366 11.6667C6.83366 11.4899 6.76342 11.3203 6.6384 11.1953C6.51337 11.0702 6.3438 11 6.16699 11ZM14.167 11H12.047C11.8897 10.5552 11.5803 10.1803 11.1733 9.94159C10.7664 9.70287 10.2882 9.6157 9.82317 9.69548C9.35817 9.77526 8.93635 10.0169 8.63226 10.3776C8.32816 10.7383 8.16137 11.1949 8.16137 11.6667C8.16137 12.1385 8.32816 12.5951 8.63226 12.9558C8.93635 13.3165 9.35817 13.5581 9.82317 13.6379C10.2882 13.7177 10.7664 13.6305 11.1733 13.3918C11.5803 13.153 11.8897 12.7782 12.047 12.3333H14.167C14.3438 12.3333 14.5134 12.2631 14.6384 12.1381C14.7634 12.0131 14.8337 11.8435 14.8337 11.6667C14.8337 11.4899 14.7634 11.3203 14.6384 11.1953C14.5134 11.0702 14.3438 11 14.167 11Z" fill="white"/>
</svg>
