<svg width="16" height="16" viewBox="0 0 16 16" fill="none" xmlns="http://www.w3.org/2000/svg">
<g clip-path="url(#clip0_1_213)">
<path d="M8 16C12.4183 16 16 12.4183 16 8C16 3.58172 12.4183 0 8 0C3.58172 0 0 3.58172 0 8C0 12.4183 3.58172 16 8 16Z" fill="url(#paint0_linear_1_213)"/>
<path fill-rule="evenodd" clip-rule="evenodd" d="M3.62168 7.91557C5.95383 6.89947 7.50899 6.2296 8.28708 5.90597C10.5088 4.98191 10.9704 4.82138 11.2713 4.81607C11.3375 4.81491 11.4855 4.83132 11.5813 4.9091C11.7235 5.02447 11.7243 5.27491 11.7085 5.44066C11.5881 6.70566 11.0672 9.77544 10.8021 11.1923C10.69 11.7918 10.4692 11.9928 10.2554 12.0124C9.79086 12.0552 9.43808 11.7054 8.98811 11.4105C8.28402 10.9489 7.88624 10.6616 7.20277 10.2112C6.41293 9.69072 6.92496 9.40466 7.37508 8.93713C7.4929 8.81478 9.5398 6.95294 9.57943 6.78403C9.5844 6.76291 9.58899 6.68416 9.54221 6.6426C9.49543 6.60103 9.42639 6.61522 9.37658 6.62653C9.30596 6.64257 8.18115 7.38603 6.00215 8.85691C5.68286 9.07616 5.39368 9.18297 5.13458 9.17738C4.84893 9.17122 4.29949 9.01588 3.89102 8.8831C3.39002 8.72025 2.99183 8.63413 3.02652 8.35756C3.04458 8.21347 3.24296 8.06616 3.62168 7.91557Z" fill="white"/>
</g>
<defs>
<linearGradient id="paint0_linear_1_213" x1="8" y1="0" x2="8" y2="15.875" gradientUnits="userSpaceOnUse">
<stop stop-color="#2AABEE"/>
<stop offset="1" stop-color="#229ED9"/>
</linearGradient>
<clipPath id="clip0_1_213">
<rect width="16" height="16" fill="white"/>
</clipPath>
</defs>
</svg>
