<svg xmlns="http://www.w3.org/2000/svg" width="172" height="32" fill="none"><g clip-path="url(#a)"><path d="M2.064 28.208l18.972-4.524c.154-.034.619-.137 1.014-.12.327.017.516.034.809.155.395.172.705.499.877.688l6.914 7.31L0 31.734l2.064-3.526zm30.461 3.509L19.126 17.544c-.12-.12-.43-.464-.619-.826-.137-.292-.223-.464-.275-.774-.052-.43.086-.86.155-1.1l2.872-9.632 15.343 26.54-4.077-.035z" fill="#FF9A00"/><path d="M20.262 3.543L14.689 22.24c-.052.154-.19.602-.413.946-.172.275-.292.43-.533.619-.344.275-.791.361-1.032.43l-9.787 2.322L18.232 0l2.03 3.543zm142.742 9.065h-.464v3.784c0 7.103-.636 7.722-1.72 7.722h-1.032v1.583s.344.172 1.17.172c2.442 0 3.526-1.239 3.526-9.46v-2.081h5.607V25.8h1.926V12.608h-9.013zm-13.519 0h-.464v3.784c0 7.103-.637 7.722-1.72 7.722h-1.049v1.583s.344.172 1.169.172c2.443 0 3.526-1.239 3.526-9.46v-2.081h5.607V25.8h1.927V12.608h-8.996zm-107.379.774V25.8h1.926V14.328h6.777V25.8h1.926V12.608h-10.63v.774zm29.738-.774h-.464v3.784c0 7.103-.636 7.722-1.72 7.722h-1.032v1.583s.344.172 1.17.172c2.442 0 3.526-1.239 3.526-9.46v-2.081h5.607V25.8h1.909V12.608h-8.996zm-10.13-.276c-3.888 0-6.588 3.08-6.588 6.88 0 3.802 2.597 6.88 6.588 6.88 3.904 0 6.587-3.078 6.587-6.88-.017-3.8-2.666-6.88-6.587-6.88zm0 12.058c-2.735 0-4.662-2.322-4.662-5.178 0-2.855 1.927-5.177 4.662-5.177 2.734 0 4.626 2.322 4.626 5.177-.017 2.873-1.892 5.178-4.626 5.178zm54.128-4.472h5.487v-1.703h-5.487v-3.887h6.123v-1.72h-8.049V25.8h8.342v-1.72h-6.416v-4.162zm18.06-7.31h-10.406v1.72h4.231V25.8h1.927V14.328h4.248v-1.72zm5.057-.086h-.843l-5.59 13.278h1.961l1.341-3.165h6.175l1.342 3.165h1.961l-5.59-13.278h-.757zm-2.425 8.41l2.373-5.641 2.374 5.641h-4.747zm-42.072-8.307h-1.29l-7.43 9.58v-9.58h-1.91V25.8h1.428l7.276-9.408V25.8h1.926V12.625zm14.827 0l-5.074 7.19-5.074-7.19h-1.686V25.8h1.927v-9.838l4.712 6.673h.241l4.661-6.587V25.8h1.927V12.625h-1.634z" fill="#878787"/></g><defs><clipPath id="a"><path fill="#fff" d="M0 0h172v31.734H0z"/></clipPath></defs></svg>