<svg width="70" height="50" viewBox="0 0 70 50" fill="none" xmlns="http://www.w3.org/2000/svg">
<g clip-path="url(#clip0_3_770)">
<path d="M2.24999 40.5804C3.60317 40.1398 6.54809 39.5234 7.67605 42.2464C8.20854 43.5379 9.23726 46.9852 9.61325 49.0425C9.47393 50.1091 6.46029 51.3231 5.67969 48.6398C5.0575 48.6114 4.36468 48.6511 3.73295 48.6303C3.55049 49.0913 3.395 49.5623 3.26726 50.041C0.83574 50.9222 -0.339939 49.3848 0.085672 47.161C0.471203 45.1944 1.61634 41.8058 2.24999 40.5804ZM5.34378 45.8298C5.15292 45.0375 4.96207 44.264 4.77121 43.4793C4.74213 43.4839 4.71249 43.4839 4.68342 43.4793C4.50401 44.2546 4.31697 45.0167 4.12993 45.8203L5.34378 45.8298Z" fill="#02775E"/>
<path d="M13.2798 50.0902C12.2626 50.0902 10.6422 49.884 10.354 47.9647C10.1479 46.5843 10.0085 43.2051 10.3941 40.779C11.3026 39.9658 13.6253 39.9469 13.8925 42.3466C13.9981 43.8033 14.0248 45.2646 13.9726 46.7242C15.3376 46.6513 16.7062 46.6905 18.0646 46.8414C18.8643 48.3202 17.7287 49.9937 16.3469 50.0826C14.9651 50.1715 13.2798 50.0902 13.2798 50.0902Z" fill="#02775E"/>
<path d="M19.0509 40.4046C20.6999 40.2381 24.4274 40.2779 26.1852 40.414C26.5516 40.934 26.8093 43.362 24.4274 43.362H22.3909V43.8707C22.9635 43.8707 24.5953 43.7629 25.4446 44.0277C26.0382 45.3306 25.582 46.467 24.1296 46.5351C23.6258 46.554 23.3299 46.5351 22.4119 46.5351V47.1327H25.8111C26.563 48.1803 26.3054 49.8746 24.4274 50.1185C23.6086 50.2263 21.0282 50.2471 20.3163 50.0807C19.3868 49.8443 18.9803 49.1882 18.904 47.8569C18.8276 46.5257 18.8524 42.0592 19.0509 40.4046Z" fill="#02775E"/>
<path d="M31.6628 50.3833C29.5977 50.3833 27.2731 49.9918 26.8399 46.8282C26.5841 45.0469 26.7616 42.6775 27.0307 40.6504C27.4659 40.1701 30.4108 39.8165 30.657 41.5959C30.7162 42.1045 30.6169 45.4346 30.8479 46.8452C30.9948 47.7056 32.1839 47.8834 32.3995 46.8055C32.6362 45.6312 32.745 42.3693 32.4587 40.8905C33.2221 40.1077 36.1441 39.8335 36.3617 42.2331C36.4915 43.5738 36.6098 44.0541 36.293 46.7866C36.0029 49.2865 33.7183 50.3833 31.6628 50.3833Z" fill="#02775E"/>
<path d="M41.5464 43.6268C40.8441 44.0579 40.6971 44.8011 40.8059 45.565C40.9643 46.7204 41.932 47.0929 42.9397 46.9454C43.6115 46.8585 44.4666 46.3006 44.6994 46.1531C46.0927 46.4179 47.003 48.7873 44.4818 49.9616C43.4245 50.4513 41.6953 50.3832 40.5483 50.0996C38.8306 49.659 37.7522 48.5622 37.2674 46.8982C36.916 45.7636 36.926 44.5494 37.2961 43.4207C37.7408 42.1178 38.6511 41.2668 39.886 40.6598C41.5369 39.8656 43.5523 39.8656 45.6785 41.0815C46.1728 42.9517 44.4036 43.9407 43.1077 43.4207C42.5045 43.2732 42.0808 43.3034 41.5464 43.6268Z" fill="#02775E"/>
<path d="M56.0362 43.1673C56.5232 44.3847 56.5857 45.7285 56.2137 46.9852C55.6812 48.687 54.5246 49.7668 52.7649 50.1771C51.3798 50.5446 49.9062 50.3861 48.6329 49.7328C47.379 49.0974 46.6575 48.0498 46.3426 46.7072C46.0468 45.444 46.125 43.9955 46.5907 42.9857C47.2129 41.6053 48.5279 40.136 51.2457 40.1266C54.622 40.1115 55.7404 42.392 56.0362 43.1673ZM50.0032 45.4194C50.072 46.554 50.8335 46.9568 51.3392 46.9171C51.845 46.8774 52.5054 46.4859 52.5646 45.3797C52.6237 44.2735 52.0015 43.6362 51.2992 43.6362C50.5968 43.6362 49.9174 44.2489 50.0032 45.4194Z" fill="#02775E"/>
<path d="M63.2722 49.9616C61.9667 50.4816 58.9035 50.718 57.1247 49.277C56.1704 48.0819 57.2716 46.0756 58.8844 46.8679C60.2776 47.5543 61.5812 47.5733 61.7472 46.9757C61.856 46.5843 61.5984 46.3006 60.8578 46.2515C59.2566 46.1342 57.4682 45.4781 57.1609 43.6362C57.0331 42.8137 57.369 40.8849 59.7413 40.2589C61.0449 39.9053 62.8542 40.0699 63.7035 40.6371C65.4346 41.7717 64.5242 43.4377 63.3886 43.7024C62.6672 42.8212 60.2452 42.4979 60.2261 43.3602C60.2261 43.5757 60.3731 43.7024 60.8769 43.7705C62.3198 43.9596 63.2588 44.3983 63.6157 44.6139C66.1179 46.1399 65.1292 49.209 63.2722 49.9616Z" fill="#02775E"/>
<path d="M32.8905 0C32.8905 0 21.6986 10.7067 29.2241 29.8264C29.2241 29.8264 26.6514 21.2868 32.8905 13.5753C39.0723 21.2868 36.5168 29.8264 36.5168 29.8264C43.9793 10.7067 32.8905 0 32.8905 0Z" fill="#1FC080"/>
<path d="M37.3464 30.9572C37.3464 30.9572 39.7436 24.8456 46.4484 22.983C46.4484 22.983 47.0496 29.505 41.8984 34.0112C41.8984 34.0112 52.7181 27.6707 52.2676 14.8896C52.2676 14.8896 41.0338 17.4764 37.3464 30.9572Z" fill="#1FC080"/>
<path d="M42.9932 34.6049C42.9932 34.6049 46.6194 31.6739 51.4061 32.8482C51.4061 32.8482 49.4766 37.0708 44.7261 38.0616C44.7261 38.0616 53.6201 37.9028 57.8514 29.8813C57.8418 29.8775 50.0148 27.578 42.9932 34.6049Z" fill="#1FC080"/>
<path d="M35.9894 25.8516C35.9894 30.7681 32.867 34.7505 32.867 34.7505C32.867 34.7505 29.7427 30.7662 29.7427 25.8516C29.7427 20.9369 32.867 16.9526 32.867 16.9526C32.867 16.9526 35.9894 20.9369 35.9894 25.8516Z" fill="#02775E"/>
<path d="M43.184 31.8535C40.9071 34.9831 37.0766 36.1026 37.0766 36.1026C37.0766 36.1026 36.9315 32.1429 39.2084 29.0133C41.4854 25.8837 45.3159 24.7643 45.3159 24.7643C45.3159 24.7643 45.4609 28.7221 43.184 31.8535Z" fill="#02775E"/>
<path d="M46.21 36.9951C43.9808 38.0427 41.5054 37.5019 41.5054 37.5019C41.5054 37.5019 42.6505 35.2592 44.8778 34.2116C47.1051 33.164 49.5824 33.7048 49.5824 33.7048C49.5824 33.7048 48.4411 35.9456 46.21 36.9951Z" fill="#02775E"/>
<path d="M28.3244 30.9572C28.3244 30.9572 25.9386 24.8456 19.2777 22.983C19.2777 22.983 18.6804 29.505 23.8049 34.0112C23.8049 34.0112 13.0405 27.6707 13.4986 14.8896C13.4795 14.8896 24.6561 17.4764 28.3244 30.9572Z" fill="#1FC080"/>
<path d="M22.7115 34.6049C22.7115 34.6049 19.1005 31.6739 14.3406 32.8482C14.3406 32.8482 16.2625 37.0708 20.9957 38.0616C20.9957 38.0616 12.1476 37.9028 7.93921 29.8813C7.93349 29.8775 15.7205 27.578 22.7115 34.6049Z" fill="#1FC080"/>
<path d="M22.52 31.8535C24.7835 34.9831 28.5988 36.1026 28.5988 36.1026C28.5988 36.1026 28.7419 32.1429 26.4764 29.0133C24.211 25.8837 20.3919 24.7718 20.3919 24.7718C20.3919 24.7718 20.2488 28.7221 22.52 31.8535Z" fill="#02775E"/>
<path d="M19.5039 36.9951C21.7236 38.0427 24.1857 37.5019 24.1857 37.5019C24.1857 37.5019 23.0405 35.2592 20.8304 34.2116C18.6203 33.164 16.1487 33.7048 16.1487 33.7048C16.1487 33.7048 17.2862 35.9456 19.5039 36.9951Z" fill="#02775E"/>
</g>
<defs>
<clipPath id="clip0_3_770">
<rect width="70" height="50" fill="white"/>
</clipPath>
</defs>
</svg>
