<svg xmlns="http://www.w3.org/2000/svg" fill="none" viewBox="0 0 191 40" class="Logo Logo--white"><path class="Logo__secondaryPart" d="M28.946 8.941L24.715 32.74h-7.79l4.23-23.798h-5.977L9.806 38.857h30.221l5.306-29.916H28.946z" fill="#C6D4E1"></path><path class="Logo__primaryPart" d="M21.155 9.008h-7.858l.672-3.697h20.55L35.46 0H5.307L0 29.849h17.394l3.761-20.84zM77.367 5.11H71.86L68.905 21.78h-5.44L66.42 5.11h-5.44l.47-2.622h16.387l-.47 2.622zM89.254 8.403c.202-1.143 0-2.017-.604-2.622-.538-.537-1.344-.806-2.35-.806h-1.478L83.68 11.36h1.41c1.008 0 1.88-.201 2.62-.605.873-.538 1.343-1.277 1.544-2.353zm5.507-.067c-.336 2.017-1.343 3.496-2.888 4.37-1.276.74-2.955 1.143-4.902 1.143h-3.694l-1.41 7.932h-5.44l3.425-19.294h8.663c1.948 0 3.56.47 4.701 1.345 1.344 1.075 1.88 2.554 1.545 4.504zM105.238 13.58l-1.344-6.857-3.626 6.857h4.97zm7.454 8.201h-5.91l-1.074-5.714h-6.716l-3.157 5.714h-2.82l10.409-19.294h5.507l3.761 19.294zM130.557 21.781h-5.44l1.478-8.47h-5.709l-1.477 8.47h-5.44l3.425-19.294h5.44l-1.478 8.202h5.709l1.477-8.202h5.44l-3.425 19.294zM150.772 16.605c-.336 1.95-1.544 3.429-3.492 4.37-1.612.806-3.559 1.21-5.843 1.21-1.947 0-3.492-.269-4.634-.807-1.343-.605-2.35-1.68-3.089-3.16l2.619-1.411c.336.874.94 1.613 1.746 2.151.806.538 1.746.807 2.888.807s2.082-.336 2.821-.942c.738-.672 1.209-1.411 1.343-2.352.201-1.076 0-1.883-.605-2.488-.604-.605-1.41-.874-2.552-.874h-1.544l.403-2.286h1.679c.94 0 1.679-.201 2.283-.672.739-.538 1.209-1.344 1.41-2.353.202-1.008 0-1.748-.47-2.285-.537-.538-1.276-.807-2.35-.807-.806 0-1.679.269-2.619.807-.806.47-1.545 1.075-2.351 1.882l-1.612-1.479c2.552-2.487 5.239-3.697 8.261-3.697 1.947 0 3.559.403 4.902 1.277 1.545 1.008 2.149 2.218 1.881 3.832-.269 1.344-.873 2.487-1.814 3.294-.805.672-1.88 1.21-3.223 1.546 1.343.202 2.418.74 3.156 1.614.739.672 1.008 1.68.806 2.823zM169.174 21.781h-5.44L165.95 9.48 155.675 21.78h-3.56l3.425-19.294h5.44l-2.149 12.034 10.074-12.034h3.761l-3.492 19.294zM190.53 5.11h-5.44l-2.955 16.671h-5.44L179.65 5.11h-5.44l.403-2.622H191l-.47 2.622zM64.07 34.69v-.404c0-1.143-.537-1.68-1.544-1.68-.672 0-1.612.2-2.15 1.276h-.805c.47-1.075 1.477-2.084 3.156-2.084 1.477 0 2.283.942 2.283 2.286 0 1.95-1.276 4.303-3.693 4.303-.47 0-2.284-.135-2.284-2.219h.806c0 1.21 1.008 1.48 1.612 1.48 1.343 0 2.149-1.01 2.485-2.287h-2.82l.133-.672h2.821zM66.621 35.63l2.418-2.017h1.008l-2.15 1.748 1.276 2.824h-.94l-1.007-2.286-.806.605-.336 1.68h-.806l1.008-4.57h.739l-.404 2.016zM73.27 35.16c0-.673-.2-1.009-.873-1.009-1.208 0-1.746 1.48-1.746 2.42 0 .538.202 1.076.94 1.076.538 0 1.075-.403 1.344-1.076h.739c-.27.74-.874 1.748-2.284 1.748-1.074 0-1.612-.672-1.612-1.68 0-1.681 1.142-3.16 2.821-3.16 1.075 0 1.41.672 1.41 1.345v.336h-.738zM78.911 33.614l-.94 4.57h-.806l.873-3.898H75.89l-.873 3.899h-.739l.94-4.572h3.694zM82.941 35.563v-.336c0-.538-.268-1.008-1.007-1.008-.739 0-1.41.672-1.545 1.344h2.552zm.47 1.21c-.335.74-1.007 1.546-2.417 1.546-1.075 0-1.612-.672-1.612-1.68 0-1.681 1.141-3.16 2.82-3.16 1.008 0 1.545.672 1.545 1.68 0 .27-.067.606-.134 1.01h-3.358c-.067.2-.067.335-.067.47 0 .672.335 1.008 1.074 1.008.739 0 1.276-.538 1.41-.874h.74zM88.112 34.286h-1.678l-.202.806c-.201 1.009-.47 1.681-1.007 2.488h2.149l.739-3.294zm-2.619.874l.336-1.48h3.224l-.873 3.9h.537l-.403 1.95h-.739l.269-1.345h-3.358l-.269 1.344h-.739l.404-1.95h.537c.604-.806.873-1.613 1.074-2.42zM90.329 37.042l3.022-3.428h.806l-1.008 4.57h-.738l.738-3.36-3.022 3.36h-.806l.94-4.57h.806l-.738 3.428zM95.702 36.571c0 .673.268 1.143.94 1.143.739 0 1.679-.806 1.679-2.42 0-.538-.202-1.008-.873-1.008-1.41-.068-1.746 1.546-1.746 2.285zm-.202-2.957h.739l-.134.672c.335-.404.738-.807 1.544-.807 1.008 0 1.478.672 1.478 1.613 0 1.143-.806 3.227-2.62 3.227-.604 0-.94-.269-1.074-.672L94.896 40h-.806l1.41-6.386zM103.291 35.361c0-.537-.202-1.21-1.008-1.21-1.343 0-1.746 1.681-1.746 2.286 0 .538.202 1.21 1.008 1.21 1.343 0 1.746-1.68 1.746-2.285zm-3.627 1.21c0-1.344 1.007-3.025 2.754-3.025 1.208 0 1.679.807 1.679 1.748 0 1.345-1.008 3.026-2.754 3.026-1.209 0-1.679-.807-1.679-1.748zM105.842 35.563h1.142c.671 0 1.074-.269 1.074-.807 0-.269-.134-.47-.805-.47h-1.142l-.269 1.277zm-.403 2.017h1.411c.604 0 1.074-.269 1.074-.874 0-.336-.269-.605-.873-.605h-1.276l-.336 1.479zm.067-3.966h2.082c.873 0 1.276.403 1.276.94 0 .673-.537 1.076-1.007 1.21.403.068.806.337.806.942 0 .874-.739 1.479-2.015 1.479h-2.149l1.007-4.572zM111.35 36.168c-.604.067-1.209.269-1.209 1.008 0 .337.202.538.739.538.739 0 1.545-.47 1.679-1.075l.134-.74c-.134.067-.671.202-1.343.27zm-1.276-1.143c.269-1.075 1.074-1.546 2.216-1.546.336 0 1.478.067 1.478 1.008 0 .27-.605 2.824-.605 2.958 0 .135.067.202.202.202.067 0 .201 0 .268-.067l-.134.538c-.134.067-.336.067-.403.067-.403 0-.672-.135-.672-.538v-.202c-.402.337-.94.74-1.813.74-.739 0-1.209-.404-1.209-1.009 0-1.008.806-1.613 1.679-1.68.269-.067 1.209-.135 1.411-.202.403-.067.537-.403.537-.74 0-.403-.269-.537-.94-.537-.873 0-1.142.538-1.276.874h-.739v.134zM115.782 35.496h2.149l.403-1.883h.806l-1.008 4.572h-.806l.47-2.084h-2.149l-.47 2.084h-.739l.941-4.572h.806l-.403 1.883zM120.416 37.042l3.022-3.428h.806l-1.008 4.57h-.738l.738-3.36h-.067l-2.955 3.36h-.806l.94-4.57h.806l-.738 3.428zM128.206 35.563v-.336c0-.538-.269-1.008-1.007-1.008-.739 0-1.411.672-1.545 1.344h2.552zm.47 1.21c-.336.74-1.007 1.546-2.418 1.546-1.074 0-1.612-.672-1.612-1.68 0-1.681 1.142-3.16 2.821-3.16 1.008 0 1.545.672 1.545 1.68 0 .27-.067.606-.135 1.01h-3.357c-.068.2-.068.335-.068.47 0 .672.336 1.008 1.075 1.008.739 0 1.276-.538 1.41-.874h.739zM133.042 37.042h.067l2.955-3.428h.806l-.941 4.57h-.806l.739-3.36-3.022 3.36h-.806l1.008-4.57h.738l-.738 3.428zM146.003 31.933l-1.343 6.252h-.873l1.209-5.513h-2.418l-.537 2.622c-.537 2.42-1.276 3.025-2.149 3.025-.202 0-.403 0-.538-.067l.135-.74c.067 0 .201.068.403.068.671 0 1.007-.807 1.343-2.555l.672-3.092h4.096zM149.764 35.361c0-.537-.201-1.21-1.007-1.21-1.343 0-1.813 1.68-1.813 2.286 0 .538.201 1.21 1.007 1.21 1.41 0 1.813-1.68 1.813-2.286zm-3.626 1.21c0-1.344 1.007-3.025 2.753-3.025 1.209 0 1.679.807 1.679 1.748 0 1.345-1.007 3.025-2.753 3.025-1.209 0-1.679-.806-1.679-1.748zM155.003 33.614l-.134.672h-2.216l-.873 3.899h-.806l1.007-4.572h3.022zM155.808 37.042l3.022-3.428h.806l-1.007 4.57h-.739l.739-3.36-3.022 3.36h-.806l.94-4.57h.806l-.739 3.428zM163.465 35.16c0-.673-.202-1.009-.873-1.009-1.209 0-1.746 1.48-1.746 2.42 0 .538.201 1.076.94 1.076.537 0 1.074-.403 1.343-1.076h.739c-.269.74-.873 1.748-2.284 1.748-1.074 0-1.611-.672-1.611-1.68 0-1.681 1.141-3.16 2.82-3.16 1.075 0 1.411.672 1.411 1.345v.336h-.739zM168.905 33.614l-.135.672h-1.544l-.806 3.899h-.806l.873-3.9h-1.545l.135-.671h3.828zM169.778 37.042l3.022-3.428h.806l-1.008 4.57h-.806l.739-3.36-2.955 3.36h-.873l1.008-4.57h.805l-.738 3.428zM175.218 35.63l2.351-2.017h1.007l-2.149 1.748 1.276 2.824h-.94l-.94-2.286-.806.605-.403 1.68h-.739l.94-4.57h.806l-.403 2.016zM180.389 36.168c-.604.067-1.209.269-1.209 1.008 0 .337.202.538.739.538.739 0 1.545-.47 1.679-1.075l.134-.74c-.134.067-.671.202-1.343.27zm-1.276-1.143c.269-1.075 1.075-1.546 2.216-1.546.336 0 1.478.067 1.478 1.008 0 .27-.605 2.824-.605 2.958 0 .135.067.202.202.202.067 0 .201 0 .268-.067l-.134.538c-.134.067-.336.067-.403.067-.403 0-.671-.135-.671-.538v-.202c-.403.337-.941.74-1.814.74-.738 0-1.209-.404-1.209-1.009 0-1.008.806-1.613 1.679-1.68.269-.067 1.209-.135 1.411-.202.403-.067.537-.403.537-.74 0-.403-.269-.537-.94-.537-.873 0-1.142.538-1.276.874h-.739v.134z" fill="#195892"></path></svg>