<svg viewBox="0 0 128 52" version="1.1" id="svg305" sodipodi:docname="ahead.svg" inkscape:version="1.2.2 (b0a8486, 2022-12-01)" xmlns:inkscape="http://www.inkscape.org/namespaces/inkscape" xmlns:sodipodi="http://sodipodi.sourceforge.net/DTD/sodipodi-0.dtd" xmlns="http://www.w3.org/2000/svg" xmlns:svg="http://www.w3.org/2000/svg">   <sodipodi:namedview id="namedview307" pagecolor="#ffffff" bordercolor="#000000" borderopacity="0.25" inkscape:showpageshadow="2" inkscape:pageopacity="0.0" inkscape:pagecheckerboard="0" inkscape:deskcolor="#d1d1d1" showgrid="false" inkscape:zoom="4.5384615" inkscape:cx="38.669492" inkscape:cy="26" inkscape:window-width="1440" inkscape:window-height="456" inkscape:window-x="0" inkscape:window-y="25" inkscape:window-maximized="0" inkscape:current-layer="svg305"></sodipodi:namedview>   <title id="title228"></title>   <desc id="desc230">Created with Sketch.</desc>   <defs id="defs274">     <linearGradient x1="0.031829032" y1="6.0293885" x2="12.075896" y2="6.0293885" id="linearGradient-1" gradientTransform="scale(1.9367763,0.5163219)" gradientUnits="userSpaceOnUse">       <stop stop-color="#800000" offset="0%" id="stop232"></stop>       <stop stop-color="#FF0000" offset="50%" id="stop234"></stop>       <stop stop-color="#FCA789" offset="100%" id="stop236"></stop>     </linearGradient>     <linearGradient x1="8.8946118" y1="20.8967" x2="3.1286177" y2="6.1485486" id="linearGradient-2" gradientTransform="scale(0.79071111,1.2646844)" gradientUnits="userSpaceOnUse">       <stop stop-color="#800000" offset="0%" id="stop239"></stop>       <stop stop-color="#FF0000" offset="50%" id="stop241"></stop>       <stop stop-color="#FCA789" offset="100%" id="stop243"></stop>     </linearGradient>     <linearGradient x1="26.52685" y1="6.1496165" x2="20.759178" y2="20.899369" id="linearGradient-3" gradientTransform="scale(0.79078085,1.2645729)" gradientUnits="userSpaceOnUse">       <stop stop-color="#800000" offset="0%" id="stop246"></stop>       <stop stop-color="#FF0000" offset="50%" id="stop248"></stop>       <stop stop-color="#FCA789" offset="100%" id="stop250"></stop>     </linearGradient>     <linearGradient x1="12.261642" y1="42.149846" x2="0.21552371" y2="42.149846" id="linearGradient-4" gradientTransform="scale(1.9366513,0.51635521)" gradientUnits="userSpaceOnUse">       <stop stop-color="#021729" offset="0%" id="stop253"></stop>       <stop stop-color="#095CA6" offset="50%" id="stop255"></stop>       <stop stop-color="#99C4DE" offset="100%" id="stop257"></stop>     </linearGradient>     <linearGradient x1="3.5759736" y1="13.523641" x2="9.3439675" y2="-1.2254348" id="linearGradient-5" gradientTransform="scale(0.79082111,1.2645085)" gradientUnits="userSpaceOnUse">       <stop stop-color="#021729" offset="0%" id="stop260"></stop>       <stop stop-color="#095CA6" offset="50%" id="stop262"></stop>       <stop stop-color="#99C4DE" offset="100%" id="stop264"></stop>     </linearGradient>     <linearGradient x1="21.207839" y1="-1.2261437" x2="26.977563" y2="13.524759" id="linearGradient-6" gradientTransform="scale(0.79089085,1.264397)" gradientUnits="userSpaceOnUse">       <stop stop-color="#021729" offset="0%" id="stop267"></stop>       <stop stop-color="#095CA6" offset="50%" id="stop269"></stop>       <stop stop-color="#99C4DE" offset="100%" id="stop271"></stop>     </linearGradient>   </defs>   <g id="Page-1" stroke="none" stroke-width="1" fill="none" fill-rule="evenodd">     <g id="03-alrosa_Бизнес-модель" transform="translate(-40.000000, -184.000000)" fill-rule="nonzero">       <g id="ALROSA_Rus_LOGO-head" transform="translate(40.000000, 184.000000)">         <g id="Group" transform="translate(40.499943)">           <polygon id="Shape" fill="url(#linearGradient-1)" points="23.388,6.2222222 11.724,0.0037986705 0.062057143,6.2222222 " style="fill:url(#linearGradient-1)"></polygon>           <polygon id="polygon277" fill="url(#linearGradient-2)" points="0.062057143,6.2222222 0.062057143,18.654321 11.724,24.874644 " style="fill:url(#linearGradient-2)"></polygon>           <polygon id="polygon279" fill="url(#linearGradient-3)" points="11.724,24.874644 23.388,18.65812 23.388,6.2222222 " style="fill:url(#linearGradient-3)"></polygon>         </g>         <g id="g288" transform="translate(63.500429)">           <polygon id="polygon282" fill="url(#linearGradient-4)" points="23.746629,18.654321 12.080571,24.874644 0.41657143,18.654321 " style="fill:url(#linearGradient-4)"></polygon>           <polygon id="polygon284" fill="url(#linearGradient-5)" points="0.41657143,18.654321 0.41657143,6.2222222 12.080571,0.0037986705 " style="fill:url(#linearGradient-5)"></polygon>           <polygon id="polygon286" fill="url(#linearGradient-6)" points="12.080571,0.0037986705 23.746629,6.2193732 23.746629,18.654321 " style="fill:url(#linearGradient-6)"></polygon>         </g>         <polygon class="_fillpath" id="polygon290" fill="#4F525A" points="31.6268559 33 24 52 29.3582499 52 34.4995113 37.9255319 39.6388178 52 45 52 37.3731441 33"></polygon>         <path class="_fillpath" d="M74.5,32 C68.4464041,32 64,35.9229949 64,42 C64,48.1662302 68.3475738,52 74.5,52 C80.6524262,52 85,48.1672001 85,42 C85,35.8298904 80.6524262,32 74.5,32 Z M74.5,47.7734458 C71.2529928,47.7734458 68.9846934,45.401222 68.9846934,42 C68.9846934,38.598778 71.2529928,36.2265542 74.5,36.2265542 C77.8535137,36.2265542 80.0172256,38.4930657 80.0172256,42 C80.0172256,45.4506837 77.8026592,47.7734458 74.5,47.7734458 Z" id="path292" fill="#4F525A"></path>         <polygon class="_fillpath" id="polygon294" fill="#4F525A" points="8.37443328 33 0 52 5.7341986 52 13.6187217 47.4912959 7.13743444 47.4912959 11 37.6798839 16.6383679 52 22 52 13.6255667 33"></polygon>         <path class="_fillpath" d="M54.5625885,33 L47,33 L47,52 L51.8142422,52 L51.8142422,37.1866538 L54.1898371,37.1866538 C55.8987447,37.1866538 57.3971683,38.1005803 57.3971683,40.0947776 C57.3971683,42.0918762 55.8987447,43.0048356 54.1898371,43.0048356 L52.8981885,43.0048356 L55.0809169,46.8162476 C58.605365,46.8162476 62,44.5280464 62,39.7843327 C62.0018537,35.0444874 58.647091,33 54.5625885,33 Z" id="path296" fill="#4F525A"></path>         <polygon class="_fillpath" id="polygon298" fill="#4F525A" points="119.627522 33 114.3715 33 106 52 111.358699 52 117.000978 37.6798839 120.863543 47.4912959 114.379323 47.4912959 122.266779 52 128 52"></polygon>         <path class="_fillpath" d="M97.4348999,36.2369264 C99.2103058,36.2369264 100.987663,36.7753954 102.340678,37.5176094 L104,33.7347434 C102.083147,32.6316096 99.6892753,32 97.5090377,32 C90.6512882,32 87,36.8413699 87,41.9980596 C87,47.1547492 90.6512882,52 97.5090377,52 C99.6892753,52 102.083147,51.3693606 104,50.2613758 L102.340678,46.4804502 C100.986687,47.2236344 99.2103058,47.7611332 97.4348999,47.7611332 C94.707408,47.7611332 92.081368,45.5082953 92.081368,41.9990298 C92.0803925,38.488794 94.707408,36.2369264 97.4348999,36.2369264 Z" id="path300" fill="#4F525A"></path>       </g>     </g>   </g> </svg>